<svg width="17" height="15" viewBox="0 0 17 15" fill="none" xmlns="http://www.w3.org/2000/svg">
<path d="M15.0081 8.98891C15.0154 9.34542 15.0311 9.70067 15.0311 10.0576C15.0311 10.3493 14.8976 10.639 14.8493 10.9265C14.7633 11.4391 14.7776 11.9655 14.7776 12.4833C14.7776 12.6544 14.7776 12.8254 14.7776 12.9964C14.7776 13.1765 14.7199 13.1132 14.5394 13.1063C13.5232 13.0672 12.4981 13.1062 11.4817 13.1188C10.4635 13.1314 9.44473 13.1404 8.42651 13.145C7.75864 13.148 7.09038 13.1386 6.42259 13.15C5.89705 13.159 5.37304 13.1987 4.84762 13.2099C4.1434 13.2249 3.44207 13.1912 2.7387 13.1912C2.61934 13.1912 2.42371 13.25 2.42371 13.0963C2.42371 12.9044 2.44339 12.7317 2.48005 12.5432C2.50607 12.4095 2.48716 12.3718 2.62602 12.3497C2.9106 12.3046 3.21628 12.2547 3.48777 12.1575C3.92073 12.0024 3.48762 11.4305 3.3482 11.2236C3.12322 10.8898 2.89149 10.558 2.79376 10.1649C2.68134 9.71281 2.64548 9.25106 2.57992 8.79166C2.52422 8.40129 2.41242 8.02683 2.38914 7.63185C2.37944 7.46744 2.38709 7.3167 2.39938 7.15494C2.42035 6.87892 2.42371 6.60397 2.42371 6.32722C2.42371 6.30157 2.4335 6.24863 2.41859 6.22484C2.39674 6.19 2.28304 6.12371 2.38529 6.22734C2.87949 6.72821 3.62475 6.8553 4.2394 7.15494C4.35193 7.2098 4.45445 7.27777 4.56464 7.33596C4.69165 7.40304 4.81508 7.52645 4.95134 7.57317C5.3669 7.71565 5.87652 7.74372 6.30094 7.81662C6.78829 7.90032 7.38738 7.94163 7.81061 8.22361C8.07738 8.40135 8.51016 7.84617 8.64162 7.67554C8.67565 7.63137 8.77479 7.51022 8.77479 7.44083C8.77479 7.37644 8.64582 7.46923 8.58272 7.48827C7.99724 7.66496 7.49217 7.95038 6.97318 8.26606C6.51539 8.54451 6.05686 8.81544 5.59157 9.0813C5.52734 9.11799 5.3269 9.22432 5.35852 9.33223C5.38118 9.40955 5.46817 9.47966 5.52754 9.52574C5.81434 9.74833 6.15111 9.90835 6.4546 10.1075C6.78342 10.3233 7.08557 10.5648 7.38933 10.8116C7.54216 10.9358 7.60542 10.7065 7.68896 10.5919C8.28237 9.77817 8.96962 9.05242 9.76971 8.42836C9.96745 8.27412 10.198 7.97719 9.81965 7.85032C9.76655 7.83252 9.64013 7.80839 9.6455 7.90276C9.65782 8.11895 9.97218 8.3376 10.1193 8.45083C10.4805 8.7289 10.9796 8.90827 11.2576 9.27855C11.4188 9.49327 11.3906 9.5755 11.118 9.72799C10.6324 9.99966 10.1002 10.1266 9.56868 10.2773C9.32676 10.3459 9.17961 10.4206 9.20247 10.6868C9.22058 10.8978 9.43698 11.2021 9.68008 10.9964C9.81662 10.8809 9.86693 10.6832 9.94129 10.5295C10.0007 10.4067 10.3696 10.6874 10.3895 10.698C10.9701 11.0083 11.563 11.2949 12.1603 11.5732C12.2638 11.6214 12.9428 11.9327 13.1181 12.0052C13.2138 12.0447 13.3334 12.1357 13.4203 12.0801C13.5139 12.0201 13.4404 11.6485 13.4331 11.5919C13.4161 11.4593 13.4057 11.1096 13.2935 11.0002C13.2677 10.9749 13.1385 11.6684 13.031 11.4284C12.7744 10.8552 12.7349 10.1374 12.6751 9.52574C12.6312 9.0775 12.5101 8.44009 12.7417 8.01262C13.0122 7.51311 13.5315 7.09596 13.9389 6.71424C14.2549 6.41809 14.6255 6.13598 14.9197 5.81535C14.9652 5.76583 14.9582 5.79324 14.9184 5.83533C14.7046 6.06149 14.3919 6.24233 14.1322 6.41336C13.8564 6.59499 13.5751 6.73837 13.2564 6.83159C12.8214 6.95882 12.4447 7.18809 12.0387 7.37841C11.4178 7.66944 10.7193 7.17898 10.2652 6.79164C9.90312 6.4827 9.56213 6.17241 9.23192 5.83033C9.11739 5.71169 8.96913 5.61781 8.85418 5.50574" stroke="#F8F263" stroke-linecap="round"/>
<path d="M14.7411 6.29449C14.7411 6.35019 14.7185 6.39905 14.6871 6.44137C14.659 6.47926 14.661 6.56416 14.6427 6.61115C14.5676 6.80371 14.5198 7.01501 14.4866 7.22156C14.4179 7.64863 14.3508 8.09555 14.3257 8.52861C14.2898 9.14867 14.2784 9.76999 14.2333 10.3895C14.2071 10.7482 14.1731 11.1105 14.1588 11.4701C14.15 11.6943 14.1528 11.9213 14.2008 12.1398C14.2468 12.349 14.3527 12.5226 14.4218 12.7219C14.4371 12.7663 14.4531 12.8103 14.4698 12.854C14.4748 12.8671 14.1476 12.8675 14.1348 12.8675C13.5177 12.8675 12.8725 12.846 12.2607 12.9416C11.1232 13.1193 9.94171 13.0373 8.79568 13.0373C7.57473 13.0373 6.35113 13.0336 5.13021 13.0117C4.48816 13.0001 3.84709 12.9645 3.20562 12.9645C3.06856 12.9645 2.89009 12.9809 2.759 12.9389C2.67978 12.9135 2.67983 12.6537 2.68456 12.5953C2.72853 12.0524 2.83747 11.5302 2.7686 10.981C2.68657 10.3269 2.44443 9.67617 2.44443 9.00966C2.44443 8.52184 2.41851 8.02243 2.46124 7.53686C2.47768 7.3501 2.45246 7.16112 2.47685 6.97497C2.48925 6.88031 2.50927 6.79034 2.50927 6.69469C2.50927 6.66092 2.5096 6.57245 2.53088 6.59633C2.61932 6.69559 2.6234 6.8607 2.73018 6.96015C3.18099 7.37998 3.71844 7.65351 4.23815 7.94515C4.59702 8.14653 4.95075 8.37035 5.34992 8.4518C5.38773 8.45952 5.42905 8.41959 5.45798 8.39925C5.62168 8.28411 5.77444 8.1516 5.93582 8.03274C6.19426 7.84239 6.4561 7.65919 6.72102 7.48027C7.19815 7.15803 7.60564 6.76695 8.0405 6.37938C8.19265 6.24377 8.33272 6.0796 8.49553 5.96032C8.53484 5.93152 8.64407 5.82385 8.69483 5.83905C8.75346 5.85659 8.8124 5.97062 8.84611 6.01961C9.20747 6.54484 9.62092 7.00158 10.0851 7.41155C10.2171 7.52807 10.352 7.63162 10.5006 7.72012C10.6233 7.79327 10.7493 7.86006 10.8751 7.92629C10.9455 7.96333 11.095 8.1118 11.0913 8.02465C11.087 7.92541 10.8624 7.70211 10.8055 7.64197C10.5922 7.41651 10.354 7.22032 10.1356 7.00057C10.0605 6.92499 9.97601 6.8589 9.90745 6.77554C9.78883 6.63131 10.142 7.06885 10.2772 7.19326C10.6247 7.51277 10.9988 7.81998 11.3746 8.09607C11.4755 8.1702 11.6227 8.29566 11.7504 8.30627C11.8701 8.31622 11.9847 8.23394 12.0854 8.17287C12.2924 8.04731 12.4953 7.91333 12.7097 7.80366C12.941 7.68532 13.1546 7.53335 13.3748 7.39134C13.4188 7.36297 13.4732 7.32595 13.4853 7.40751C13.5351 7.74267 13.4861 8.12102 13.4192 8.44776C13.2864 9.09657 12.9943 9.69631 12.7349 10.2898C12.5606 10.6885 12.4061 11.0991 12.2294 11.4957C12.1387 11.6994 11.9888 11.6458 11.7924 11.6494C10.5715 11.6714 9.34921 11.6561 8.12814 11.6547C7.03722 11.6536 5.91802 11.6845 4.83126 11.5429C4.58979 11.5115 4.48738 11.4309 4.3342 11.2303C4.09244 10.9137 3.83564 10.6244 3.70628 10.2237C3.57786 9.82593 3.51687 9.39619 3.46496 8.97866C3.46198 8.95468 3.82466 9.23741 3.85155 9.25624C4.40336 9.64265 4.97512 9.989 5.52041 10.3881C5.73553 10.5456 5.96849 10.779 6.21676 10.8719C6.32243 10.9114 6.26959 10.5825 6.26959 10.5485C6.26959 10.0716 6.2598 9.56548 6.4749 9.13632C6.50628 9.07369 6.58146 9.17907 6.60336 9.20234C6.8132 9.42532 7.04763 9.5935 7.29011 9.76828C7.43255 9.87095 7.55615 9.98419 7.68632 10.1025C7.71163 10.1255 7.91099 9.33151 7.92164 9.28319C7.99926 8.93077 8.04596 8.56799 8.13414 8.21869C8.15653 8.13003 8.16557 8.19267 8.17617 8.24564C8.22003 8.46495 8.25778 8.68281 8.31424 8.89916C8.43895 9.37704 8.61007 9.83614 8.8329 10.2668C8.85011 10.3001 8.88674 10.3282 8.92295 10.3086C9.1082 10.2082 9.23244 9.8094 9.32395 9.62545C9.35297 9.56712 9.54155 9.04824 9.65052 9.07029C9.73548 9.08749 9.8193 9.26218 9.85222 9.31957C10.004 9.58414 10.1368 9.86197 10.2844 10.1294C10.3529 10.2534 10.4273 10.4035 10.5198 10.5107C10.565 10.5632 10.5896 10.5027 10.6158 10.4555C10.7148 10.2773 10.7859 9.97633 10.9328 9.84105C11.0178 9.76271 11.488 10.2099 11.5595 10.2588C11.7807 10.41 11.836 10.3358 11.9581 10.0998C12.0165 9.98679 12.0893 9.86281 12.1262 9.73864" stroke="#F8F263" stroke-linecap="round"/>
<path d="M4.83803 7.6542C4.64348 7.50404 4.50616 7.28453 4.32766 7.11454C4.06617 6.86552 3.70772 6.72803 3.39557 6.55151C3.24726 6.46764 3.08125 6.39977 2.93911 6.30738C2.81403 6.22607 2.67519 6.11544 2.53537 6.06091C2.47001 6.03542 2.39632 5.95827 2.46588 6.08194C2.58916 6.30112 2.63536 6.57896 2.65996 6.82485C2.67295 6.95467 2.70498 7.08056 2.73784 7.20682C2.76215 7.30026 2.80088 7.55798 2.89239 7.61916C2.92609 7.6417 3.02087 7.59457 3.04334 7.58762C3.17481 7.54698 3.30805 7.51596 3.44349 7.49067C3.63727 7.45449 3.8587 7.39964 4.0569 7.43694C4.30414 7.48346 4.49901 7.65213 4.74338 7.70443C5.05937 7.77206 5.39462 7.79246 5.7174 7.78036C5.81608 7.77666 5.90243 7.70231 5.98577 7.65888C6.13416 7.58155 6.28802 7.51837 6.42905 7.42759C6.59287 7.32214 6.7189 7.16815 6.85556 7.03277C7.01618 6.87366 7.17772 6.71633 7.33957 6.55852C7.56674 6.33704 7.79694 6.12577 8.02965 5.91022C8.1804 5.77059 8.35754 5.69068 8.52805 5.58199C8.61798 5.52465 8.73931 5.48032 8.84673 5.46868C8.92837 5.45983 9.00166 5.56182 9.048 5.61119C9.20376 5.77712 9.36174 5.93477 9.53202 6.08661C9.78003 6.30775 10.0318 6.5297 10.2868 6.74308C10.4 6.83786 10.5072 6.93695 10.6127 7.03978C10.6708 7.09643 10.7284 7.15363 10.7876 7.20916C10.8099 7.23007 10.9054 7.29173 10.9158 7.32714C10.9472 7.43431 11.2764 7.5804 11.3878 7.64953C11.5669 7.76066 11.8341 7.61659 12.0096 7.5444C12.3329 7.41136 12.5882 7.15863 12.9153 7.03511C12.9666 7.01576 13.1132 6.94348 13.0675 6.9732C13.0197 7.00424 12.9886 7.04159 12.9656 7.09351C12.891 7.26263 13.036 6.9766 13.0687 6.94283C13.3601 6.64133 13.7728 6.71657 14.1326 6.57721C14.335 6.49882 14.5123 6.32704 14.7052 6.22328C14.7921 6.17653 14.882 6.14228 14.9185 6.04572C14.9222 6.03594 14.9465 5.95917 14.9508 6.01652C14.9697 6.26509 14.9428 6.5218 14.8873 6.76411C14.8465 6.94254 14.7884 7.11919 14.7148 7.28742C14.6795 7.36829 14.6315 7.51915 14.5375 7.55608C14.4652 7.58447 14.3596 7.57757 14.2859 7.58061C14.0934 7.58857 13.9011 7.59064 13.7084 7.59113C13.2043 7.5924 12.7015 7.58109 12.1977 7.57127C11.9231 7.56591 11.6481 7.5701 11.3734 7.5701C11.0723 7.5701 10.8386 7.5947 10.5971 7.39605C10.2507 7.11118 9.98826 6.74798 9.67818 6.42886C9.53047 6.27685 9.33167 6.05432 9.10551 6.01185C8.97841 5.98798 8.85018 6.05756 8.7437 6.11231C8.45894 6.25869 8.19324 6.43688 7.90745 6.58188C7.85728 6.60734 6.7579 7.09715 6.77409 7.11688C6.81239 7.16356 7.05847 7.16852 7.08319 7.17061C7.58361 7.21289 8.08671 7.2286 8.58795 7.25822C9.35693 7.30366 10.1144 7.38354 10.8762 7.486" stroke="#F8F263" stroke-linecap="round"/>
<path d="M2.43355 7.24384C2.24007 8.36746 2.03032 9.46454 2.03568 10.6058C2.0382 11.1401 2.02832 11.6908 2.09884 12.2221C2.12127 12.3911 2.18048 12.6048 2.24725 12.764C2.29365 12.8746 2.42761 12.841 2.52828 12.8394C3.07071 12.8309 3.61554 12.798 4.15762 12.8317C5.45393 12.9123 6.74668 13.0063 8.04469 13.0687C9.47985 13.1378 10.912 13.1457 12.3486 13.1457C12.9758 13.1457 13.6033 13.1506 14.2305 13.1457C14.4689 13.1439 14.83 13.1834 15.0499 13.0687C15.2583 12.9601 15.1354 12.3943 15.1241 12.219C15.084 11.5923 15.1368 10.97 15.1368 10.3441C15.1368 10.0542 15.1368 9.76427 15.1368 9.47436C15.1368 9.32924 15.1676 9.14842 15.1352 9.0064C15.1161 8.92274 13.725 8.98946 13.5911 8.98946C11.6719 8.98946 9.75286 8.92373 7.83471 8.86631C7.12965 8.84521 6.4244 8.85092 5.71908 8.85092C5.46801 8.85092 5.21953 8.84606 4.96914 8.82937C4.91449 8.82573 4.75017 8.82321 4.80494 8.82321C5.17902 8.82321 6.32526 8.98183 6.4406 8.99562C6.87283 9.0473 8.85588 9.28485 9.40564 9.40201C10.1594 9.56263 7.86159 9.44823 7.09108 9.40971C6.34791 9.37255 4.11814 9.2674 4.86178 9.29425C6.14917 9.34074 7.43554 9.41023 8.722 9.4759C10.3824 9.56065 12.0549 9.69365 13.719 9.67601C13.8069 9.67508 13.9652 9.66555 14.06 9.66062C14.0911 9.65901 14.1221 9.65726 14.1532 9.656C14.1963 9.65425 14.2503 9.65513 14.1721 9.65292C12.7353 9.61232 11.2975 9.59867 9.86034 9.57134C8.38968 9.54336 6.91965 9.4924 5.4491 9.46358C5.30861 9.46083 5.08832 9.42669 4.94388 9.47282C4.7221 9.54365 4.50333 9.58995 4.26972 9.60982C4.08273 9.62573 3.88338 9.63266 3.69661 9.63907C3.60814 9.6421 3.07283 9.5917 2.98929 9.66062C2.96142 9.68361 3.05909 9.68229 3.09508 9.68833C3.24874 9.71413 3.40307 9.73628 3.55767 9.75606C4.76867 9.91104 5.9842 10.0208 7.2016 10.1147C8.90166 10.2459 10.6 10.3468 12.2854 10.6119C12.598 10.6611 12.9579 10.729 13.2738 10.7874C13.3485 10.8013 13.6799 10.8235 13.7632 10.8844C13.8269 10.931 13.6044 10.8974 13.5248 10.8967C12.5612 10.8887 11.5975 10.8641 10.634 10.8521C8.72103 10.8282 6.8065 10.8031 4.89336 10.8213C4.28057 10.8271 3.65498 10.8206 3.04613 10.8998C2.93245 10.9146 3.26196 10.9785 3.37453 10.9999C4.95074 11.2991 6.56493 11.3868 8.16468 11.4771C9.75199 11.5667 11.3392 11.6568 12.9264 11.748C13.5774 11.7854 14.2272 11.8157 14.8794 11.8157C15.446 11.8157 14.5276 11.9216 14.5116 11.9235C12.7845 12.1245 11.0353 12.1408 9.29828 12.1282C7.98338 12.1187 6.66943 12.0633 5.35437 12.0651C5.08153 12.0655 4.66811 12.069 4.38813 12.0836C4.18602 12.0941 3.60246 12.1338 3.79292 12.2006C4.02566 12.2822 4.83306 12.3628 4.91388 12.3714C6.05541 12.493 7.20108 12.5559 8.34782 12.6069C9.73903 12.6688 11.1317 12.7293 12.5238 12.767C13.1 12.7826 13.6762 12.7855 14.2526 12.7855C14.28 12.7855 14.3074 12.7855 14.3347 12.7855C14.4226 12.7855 14.1589 12.7885 14.0711 12.7917C10.7708 12.9097 7.47369 12.944 4.17183 12.884C3.74507 12.8763 3.31306 12.8409 2.88825 12.8409" stroke="#F8F263" stroke-linecap="round"/>
<path d="M8.87729 2.04505C8.89488 1.93072 8.93052 1.75831 8.77486 1.71545C8.70042 1.69496 8.69461 1.76644 8.69291 1.81533C8.68929 1.91953 8.70498 1.91021 8.80815 1.91021" stroke="#F8F263" stroke-linecap="round"/>
<path d="M15.2156 2.00011C15.2796 1.97052 15.3744 1.95305 15.3744 1.86653C15.3744 1.80413 15.316 1.77539 15.2617 1.77539" stroke="#F8F263" stroke-linecap="round"/>
<path d="M1.7784 2.13499C1.7784 2.074 1.81677 1.93274 1.7323 1.93274" stroke="#F8F263" stroke-linecap="round"/>
<path d="M8.36735 2.68354C8.83922 2.70762 9.18269 2.8767 9.48969 2.40686C9.69528 2.09222 9.63298 1.53566 9.41832 1.24917C9.14511 0.88453 8.64377 0.976963 8.35599 1.25827C8.06662 1.54113 8.07541 1.86454 8.07541 2.2576" stroke="black" stroke-width="0.5" stroke-linecap="round"/>
<path d="M14.7519 2.67353C15.2237 2.69761 15.5672 2.86669 15.8742 2.39685C16.0798 2.08221 16.0175 1.52565 15.8028 1.23916C15.5296 0.874521 15.0283 0.966953 14.7405 1.24826C14.4511 1.53112 14.4599 1.85453 14.4599 2.24759" stroke="black" stroke-width="0.5" stroke-linecap="round"/>
<path d="M1.29197 2.67353C1.76384 2.69761 2.10731 2.86669 2.41431 2.39685C2.6199 2.08221 2.5576 1.52565 2.34295 1.23916C2.06974 0.874521 1.5684 0.966953 1.28061 1.24826C0.991244 1.53112 1.00003 1.85453 1.00003 2.24759" stroke="black" stroke-width="0.5" stroke-linecap="round"/>
<path d="M1.7214 13.9046H11.5087C12.8445 13.9046 14.1781 13.9682 15.5149 13.9682M15.6282 5.0358C15.6282 5.79723 15.5999 6.55248 15.5999 7.3157C15.5999 8.33171 15.6282 9.34751 15.6282 10.3621C15.6282 11.3588 15.7132 12.3555 15.7132 13.3484C15.7132 13.5016 15.7728 13.913 15.6565 14M1.66475 4.87685C1.66475 5.82591 1.65589 6.77635 1.59394 7.72187C1.53672 8.59538 1.55146 9.47022 1.55146 10.3462C1.55146 11.2123 1.49481 12.0762 1.49481 12.9439V13.9046M15.5114 4.7878C15.212 4.80647 14.8764 5.03798 14.6109 5.18165C14.2525 5.37557 13.9129 5.60821 13.5581 5.8089C13.2094 6.00619 12.8477 6.16756 12.5054 6.37988C12.3622 6.46866 12.1896 6.56815 12.0356 6.62577M11.7682 6.85086C11.2313 6.30305 10.6535 5.77135 10.0712 5.28378C9.82134 5.07461 9.57712 4.85731 9.32847 4.64612C9.2342 4.56605 9.04123 4.44315 8.99425 4.33771M5.35132 7.15092C5.37493 7.03166 5.62063 6.91774 5.7041 6.84668C5.92262 6.66062 6.14703 6.48315 6.3651 6.29653C6.72713 5.98672 7.1394 5.75687 7.49772 5.44215C7.70589 5.2593 7.96914 5.12787 8.15872 4.92118C8.26437 4.80599 8.49749 4.70258 8.55978 4.56275M1.64152 4.75031C1.8197 4.75031 1.9316 4.87822 2.06858 4.99621C2.20082 5.11011 2.3807 5.21303 2.53091 5.2942C2.96478 5.52865 3.44434 5.78441 3.83992 6.09232C4.17312 6.35168 4.57146 6.65522 4.95211 6.81543C5.11147 6.8825 5.23267 7.01902 5.38473 7.07591" stroke="black" stroke-width="0.5" stroke-linecap="round"/>
</svg>
