<svg width="123" height="53" viewBox="0 0 123 53" fill="none" xmlns="http://www.w3.org/2000/svg">
<path d="M0 0H123V53H0V0Z" fill="#132B81"/>
<path d="M36.7 26.8L35.88 28.04C33.62 27.56 31.4 26.54 29.6 25.14C29.12 24.76 28.68 24.34 28.3 23.88C27.84 24.44 27.3 24.94 26.7 25.4C25.02 26.7 22.88 27.64 20.86 28.06L20.06 26.88C23.22 26.32 25.92 24.86 27.32 22.74C27.58 22.34 27.8 21.92 27.94 21.48H21.28V20.16H35.6V21.48H29.62C29.48 21.92 29.3 22.34 29.08 22.76C29.86 23.76 30.88 24.6 32.14 25.26C33.48 25.96 35 26.48 36.7 26.8ZM19.68 31.5H27.66V27.44H29.22V31.5H37.2V32.82H19.68V31.5ZM24.36 17.02H32.52V18.34H24.36V17.02Z" fill="white"/>
<path d="M50.6267 34H49.1267V16.86H50.6267V23.36H53.5067V16.66H55.0267V34.48H53.5067V24.72H50.6267V34ZM39.7267 17.54H46.8867V18.86H41.2267V29.78L48.1267 29.48V30.78L39.7267 31.26V17.54Z" fill="white"/>
<path d="M70.3359 16.34C73.2559 16.34 75.4559 18 75.4559 20.48C75.4559 22.36 74.2159 23.72 72.3559 24.32C71.9759 24.46 71.5559 24.54 71.1159 24.58V26.5L77.0759 26.42V27.7L63.8559 27.9V26.58L69.5559 26.52V24.58C69.1159 24.54 68.6959 24.46 68.2959 24.32C66.4759 23.72 65.2159 22.36 65.2159 20.48C65.2159 18 67.4159 16.34 70.3359 16.34ZM70.3359 23.34C72.4759 23.34 73.9359 22.16 73.9359 20.48C73.9359 18.8 72.4759 17.62 70.3359 17.62C68.1959 17.62 66.7359 18.8 66.7359 20.48C66.7359 22.16 68.1959 23.34 70.3359 23.34ZM79.5559 30.36H78.0359V16.66H79.5559V22.06H81.9159V23.42H79.5559V30.36ZM80.1159 34.16H66.2159V29.3H67.7359V32.84H80.1159V34.16Z" fill="white"/>
<path d="M82.9027 31.5H87.9027V27.86H84.8827V21.92H96.9027V18.74H84.8827V17.42H98.4227V23.24H86.4027V26.52H98.7227V27.86H96.0827V31.5H100.423V32.82H82.9027V31.5ZM89.4427 27.86V31.5H94.5427V27.86H89.4427Z" fill="white"/>
<path d="M102.849 31.68V33.6H104.769V31.68H102.849ZM104.629 17.1L104.369 30.06H103.249L102.989 17.1H104.629Z" fill="white"/>
</svg>
