<svg width="123" height="52" viewBox="0 0 123 52" fill="none" xmlns="http://www.w3.org/2000/svg">
<path d="M0 0H123V52H0V0Z" fill="#132B81"/>
<path d="M35.01 26.1H33.49V16.66H35.01V26.1ZM33.45 27.02H34.97V34.38H21.77V27.02H23.29V29.18H33.45V27.02ZM23.29 33.06H33.45V30.46H23.29V33.06ZM24.67 16.52C27.49 16.52 29.79 18.46 29.79 21.18C29.79 23.9 27.49 25.84 24.67 25.84C21.85 25.84 19.55 23.9 19.55 21.18C19.55 18.46 21.85 16.52 24.67 16.52ZM24.67 24.56C26.81 24.56 28.27 23.16 28.27 21.18C28.27 19.2 26.81 17.8 24.67 17.8C22.53 17.8 21.07 19.2 21.07 21.18C21.07 23.16 22.53 24.56 24.67 24.56Z" fill="white"/>
<path d="M47.6167 22.7H40.5367V25.86L50.3567 25.48V26.74L39.0167 27.26V21.46H46.0967V18.4H39.0167V17.12H47.6167V22.7ZM53.8967 27.88H52.3767V23.78H48.8367V22.48H52.3767V20.18H48.8367V18.88H52.3767V16.66H53.8967V27.88ZM53.8567 34.58H52.3367V30.2H40.0567V28.88H53.8567V34.58Z" fill="white"/>
<path d="M69.5859 16.34C72.5059 16.34 74.7059 18 74.7059 20.48C74.7059 22.36 73.4659 23.72 71.6059 24.32C71.2259 24.46 70.8059 24.54 70.3659 24.58V26.5L76.3259 26.42V27.7L63.1059 27.9V26.58L68.8059 26.52V24.58C68.3659 24.54 67.9459 24.46 67.5459 24.32C65.7259 23.72 64.4659 22.36 64.4659 20.48C64.4659 18 66.6659 16.34 69.5859 16.34ZM69.5859 23.34C71.7259 23.34 73.1859 22.16 73.1859 20.48C73.1859 18.8 71.7259 17.62 69.5859 17.62C67.4459 17.62 65.9859 18.8 65.9859 20.48C65.9859 22.16 67.4459 23.34 69.5859 23.34ZM78.8059 30.36H77.2859V16.66H78.8059V22.06H81.1659V23.42H78.8059V30.36ZM79.3659 34.16H65.4659V29.3H66.9859V32.84H79.3659V34.16Z" fill="white"/>
<path d="M82.1527 31.5H87.1527V27.86H84.1327V21.92H96.1527V18.74H84.1327V17.42H97.6727V23.24H85.6527V26.52H97.9727V27.86H95.3327V31.5H99.6727V32.82H82.1527V31.5ZM88.6927 27.86V31.5H93.7927V27.86H88.6927Z" fill="white"/>
<path d="M102.099 31.68V33.6H104.019V31.68H102.099ZM103.879 17.1L103.619 30.06H102.499L102.239 17.1H103.879Z" fill="white"/>
</svg>
