<svg width="25" height="25" viewBox="0 0 25 25" fill="none" xmlns="http://www.w3.org/2000/svg">
<path d="M25 12.5C25 19.4036 19.4036 25 12.5 25C5.59644 25 0 19.4036 0 12.5C0 5.59644 5.59644 0 12.5 0C19.4036 0 25 5.59644 25 12.5Z" fill="#132B81"/>
<path d="M16.3088 9.79412C16.3088 11.8529 14.6471 13.1912 12.9412 13.7794V16.2206H11.8529V13.1912C13.9559 12.5882 15.2206 11.3676 15.2206 9.79412C15.2206 8.38235 14.1618 7.30882 12.5 7.30882C11.4559 7.30882 10.4559 8.13235 9.94118 9.16176L9.14706 8.64706C9.69118 7.47059 11.0147 6.39706 12.5 6.39706C14.9853 6.39706 16.3088 8.0147 16.3088 9.79412ZM11.7206 17.4118V18.8235H13.1324V17.4118H11.7206Z" fill="white"/>
</svg>
