<svg width="50" height="50" viewBox="0 0 50 50" fill="none" xmlns="http://www.w3.org/2000/svg">
<circle cx="25" cy="25" r="25" fill="#ABBDFC" fill-opacity="0.18"/>
<circle cx="25" cy="25" r="24.5" stroke="#132B81" stroke-opacity="0.6"/>
<path d="M10 24.9858L24.9858 10L40 25.0142L25.0142 40L10 24.9858Z" fill="#1848F5" fill-opacity="0.5"/>
<path d="M24.1022 19.6867C24.0944 19.8194 24.0095 19.9664 23.9032 20.0946C23.8904 20.1258 23.8637 20.1636 23.8289 20.2027C23.7303 20.3438 23.5799 20.5141 23.4735 20.5445C23.1158 20.6467 23.2391 20.4931 23.2391 20.3101C23.2391 20.087 23.4854 19.8378 23.644 19.708C23.6492 19.7038 23.6543 19.6997 23.6593 19.6957C23.6897 19.6426 23.7235 19.5914 23.7612 19.5429C23.9477 19.3031 24.1201 19.3821 24.1022 19.6867Z" fill="#1848F5" fill-opacity="0.5"/>
<path d="M30.4633 24.5927C30.4555 24.7254 30.3706 24.8724 30.2642 25.0006C30.2515 25.0318 30.2247 25.0696 30.19 25.1086C30.0914 25.2498 29.9409 25.4201 29.8346 25.4505C29.4769 25.5527 29.6001 25.399 29.6001 25.216C29.6001 24.993 29.8464 24.7438 30.0051 24.614C30.0103 24.6097 30.0154 24.6056 30.0204 24.6017C30.0508 24.5486 30.0845 24.4974 30.1223 24.4488C30.3087 24.2091 30.4812 24.2881 30.4633 24.5927Z" fill="#1848F5" fill-opacity="0.5"/>
<path d="M23.6227 20.358C23.7037 20.3006 23.8003 20.2144 23.8856 20.1155M23.8856 20.1155C23.8915 20.1086 23.8974 20.1016 23.9032 20.0946M23.8856 20.1155C23.8699 20.1419 23.8507 20.1716 23.8289 20.2027M23.8856 20.1155C23.8953 20.099 23.9037 20.0838 23.9104 20.0703M23.9032 20.0946C24.0095 19.9664 24.0944 19.8194 24.1022 19.6867C24.1201 19.3821 23.9477 19.3031 23.7612 19.5429C23.7235 19.5914 23.6897 19.6426 23.6593 19.6957M23.9032 20.0946C23.8904 20.1258 23.8637 20.1636 23.8289 20.2027M23.9032 20.0946C23.9067 20.086 23.9092 20.0778 23.9104 20.0703M23.6593 19.6957C23.5514 19.8843 23.4848 20.0975 23.4256 20.3048C23.3457 20.5844 23.6705 20.3808 23.8289 20.2027M23.6593 19.6957C24.0315 19.4032 23.933 19.9349 23.9104 20.0703M23.6593 19.6957C23.6543 19.6997 23.6492 19.7038 23.644 19.708C23.4854 19.8378 23.2391 20.087 23.2391 20.3101C23.2391 20.4931 23.1158 20.6467 23.4735 20.5445C23.5799 20.5141 23.7303 20.3438 23.8289 20.2027M29.9838 25.264C30.0648 25.2066 30.1614 25.1204 30.2466 25.0214M30.2466 25.0214C30.2525 25.0145 30.2584 25.0076 30.2642 25.0006M30.2466 25.0214C30.2309 25.0479 30.2117 25.0776 30.19 25.1086M30.2466 25.0214C30.2563 25.005 30.2647 24.9898 30.2715 24.9763M30.2642 25.0006C30.3706 24.8724 30.4555 24.7254 30.4633 24.5927C30.4812 24.2881 30.3087 24.2091 30.1223 24.4488C30.0845 24.4974 30.0508 24.5486 30.0204 24.6017M30.2642 25.0006C30.2515 25.0318 30.2247 25.0696 30.19 25.1086M30.2642 25.0006C30.2678 24.9919 30.2702 24.9838 30.2715 24.9763M30.0204 24.6017C29.9124 24.7903 29.8459 25.0034 29.7866 25.2107C29.7067 25.4904 30.0315 25.2867 30.19 25.1086M30.0204 24.6017C30.3925 24.3092 30.294 24.8408 30.2715 24.9763M30.0204 24.6017C30.0154 24.6056 30.0103 24.6097 30.0051 24.614C29.8464 24.7438 29.6001 24.993 29.6001 25.216C29.6001 25.399 29.4769 25.5527 29.8346 25.4505C29.9409 25.4201 30.0914 25.2498 30.19 25.1086M22.6707 23.7291C22.9727 24.442 23.2875 25.0132 23.9581 25.4044C24.3926 25.6579 24.8758 25.7997 25.3108 26.0172M16.6278 18.0969C16.6278 17.9373 16.5429 17.7355 16.4974 17.5819C16.3631 17.1285 16.3584 16.6232 16.3018 16.1542C16.2192 15.4696 16.2171 14.7949 16.2171 14.1073M32.3511 32.7055C32.9823 33.3366 33.4136 34.2075 33.8178 34.9936C34.1722 35.6826 34.4908 36.3982 34.8152 37.047M15.161 30.1827C14.6808 30.2361 14.3559 30.9128 13.9159 31.0758C13.7005 31.1556 13.6002 31.3352 13.3814 31.4148C13.2034 31.4795 13.2304 31.3515 13.1532 31.1801C13.0792 31.0155 13.0274 30.7293 12.8729 30.6521M18.5638 33.7029C18.1241 33.7029 17.7158 34.2554 17.2992 34.4069C17.0942 34.4814 16.7371 34.6756 16.5821 34.8306C16.3093 35.1034 15.8795 34.157 15.8064 33.9375M10 24.9858L24.9858 10L40 25.0142L25.0142 40L10 24.9858Z" stroke="#132B81" stroke-linecap="round"/>
</svg>
