<svg width="561" height="438" viewBox="0 0 561 438" fill="none" xmlns="http://www.w3.org/2000/svg">
<mask id="path-1-outside-1_308_339" maskUnits="userSpaceOnUse" x="0" y="0" width="561" height="438" fill="black">
<rect fill="white" width="561" height="438"/>
<path d="M1 1H560V437H1V1Z"/>
<path d="M122.037 196.656V194.64C122.037 193.512 122.853 192.216 123.813 191.52L124.413 192.048C123.669 192.624 123.309 193.512 123.309 194.352H124.341V196.656H122.037Z"/>
<path d="M125.644 211.2H135.22V205.776H128.02V194.304H144.268V205.776H137.092V211.2H146.668V212.784H125.644V211.2ZM129.844 195.888V204.192H142.444V195.888H129.844Z"/>
<path d="M167.604 205.416H165.78V193.392H167.604V205.416ZM151.716 206.616H167.556V214.656H151.716V206.616ZM153.54 208.152V213.072H165.732V208.152H153.54ZM155.196 193.32C158.724 193.32 161.436 195.672 161.436 199.032C161.436 202.392 158.724 204.744 155.196 204.744C151.668 204.744 148.956 202.392 148.956 199.032C148.956 195.672 151.668 193.32 155.196 193.32ZM155.196 203.16C157.884 203.16 159.612 201.432 159.612 199.032C159.612 196.632 157.884 194.904 155.196 194.904C152.508 194.904 150.78 196.632 150.78 199.032C150.78 201.432 152.508 203.16 155.196 203.16Z"/>
<path d="M193.991 209.592L192.743 210.984C190.679 209.496 188.543 207.168 186.983 204.768C186.671 204.312 186.407 203.88 186.167 203.424C185.999 203.832 185.807 204.216 185.615 204.624C184.199 207.504 182.135 209.832 179.711 211.632L178.487 210.36C183.167 207.168 185.903 201.672 185.975 194.064H187.847C187.847 196.152 187.655 198.072 187.271 199.824C187.151 200.352 187.007 200.88 186.863 201.384C187.583 202.92 188.543 204.384 189.719 205.8C190.967 207.288 192.383 208.56 193.991 209.592ZM198.551 214.8H196.727V193.392H198.551V214.8Z"/>
<path d="M220.039 209.184H218.215V193.392H220.039V199.392H222.991V201.024H220.039V209.184ZM220.735 214.56H204.511V207.504H206.335V212.976H220.735V214.56ZM202.759 195.72V194.136H213.799C213.871 200.688 208.399 205.008 202.543 206.352L201.631 204.912C207.415 203.688 211.279 199.848 211.783 195.72H202.759Z"/>
<path d="M244.722 205.104C248.73 205.104 251.538 207.24 251.538 210.168C251.538 213.096 248.73 215.232 244.722 215.232C240.666 215.232 237.906 213.096 237.906 210.168C237.906 207.24 240.666 205.104 244.722 205.104ZM244.722 213.648C247.89 213.648 249.714 212.184 249.714 210.168C249.714 208.152 247.89 206.688 244.722 206.688C241.554 206.688 239.73 208.152 239.73 210.168C239.73 212.184 241.554 213.648 244.722 213.648ZM246.498 194.136V195.672H241.194C241.074 196.44 240.834 197.184 240.522 197.904L240.33 198.264C240.666 198.672 241.074 199.08 241.53 199.464C243.09 200.784 245.202 201.888 247.314 202.464L246.354 203.976C244.482 203.352 242.37 202.2 240.642 200.712C240.234 200.376 239.874 200.016 239.562 199.656C239.25 200.112 238.938 200.52 238.578 200.928C236.97 202.752 234.858 204.192 232.77 204.984L231.714 203.616C234.954 202.464 237.522 200.208 238.722 197.376C238.938 196.824 239.106 196.272 239.226 195.672H233.082V194.136H246.498ZM245.106 199.344V197.808H249.762V193.392H251.586V205.32H249.762V199.344H245.106Z"/>
<path d="M265.562 195.168H258.362V193.584H265.562V195.168ZM268.682 198.792H255.146V197.208H268.682V198.792ZM261.914 200.328C265.634 200.328 267.89 202.992 267.89 206.136C267.89 209.28 265.634 211.944 261.914 211.944C258.194 211.944 255.938 209.28 255.938 206.136C255.938 202.992 258.194 200.328 261.914 200.328ZM261.914 210.384C264.722 210.384 266.066 208.392 266.066 206.16C266.066 203.856 264.722 201.888 261.914 201.888C259.106 201.888 257.762 203.856 257.762 206.16C257.762 208.392 259.106 210.384 261.914 210.384ZM272.978 214.8H271.154V193.392H272.978V202.512H276.458V204.144H272.978V214.8Z"/>
<path d="M296.603 214.8H294.779V193.392H296.603V214.8ZM279.01 195.888V194.304H290.194C290.266 202.176 285.755 208.272 279.539 211.536L278.339 210.192C284.29 207.312 287.962 201.6 288.227 195.888H279.01Z"/>
<path d="M301.531 192.576V194.592C301.531 195.744 300.715 197.016 299.755 197.712L299.155 197.184C299.899 196.608 300.259 195.72 300.259 194.88H299.227V192.576H301.531Z"/>
<path d="M323.357 194.064H325.181V200.832H330.029V193.392H331.853V214.8H330.029V202.464H325.181V210.768H314.164V194.064H315.988V200.304H323.357V194.064ZM315.988 209.184H323.357V201.888H315.988V209.184Z"/>
<path d="M335.293 205.632H356.317V207.168H335.293V205.632ZM354.757 214.56H337.645V208.704H339.469V212.976H354.757V214.56ZM353.677 197.736V199.224H339.493V201.912H354.277V203.472H337.669V193.632H353.917V195.168H339.493V197.736H353.677Z"/>
<path d="M357.957 202.992H378.981V204.528H357.957V202.992ZM368.469 192.528C372.453 192.528 375.525 194.352 375.525 197.04C375.525 199.728 372.453 201.552 368.469 201.552C364.485 201.552 361.413 199.728 361.413 197.04C361.413 194.352 364.485 192.528 368.469 192.528ZM368.469 200.064C371.397 200.064 373.701 198.864 373.701 197.04C373.701 195.216 371.397 194.016 368.469 194.016C365.541 194.016 363.237 195.216 363.237 197.04C363.237 198.864 365.541 200.064 368.469 200.064ZM377.181 214.656H360.213V209.76H374.853V207.936H360.213V206.448H376.677V211.2H362.037V213.144H377.181V214.656Z"/>
<path d="M388.496 202.08H409.52V203.616H399.944V205.968H407.216V210.96H392.576V213.144H407.72V214.656H390.752V209.52H405.392V207.456H390.752V205.968H398.072V203.616H388.496V202.08ZM390.872 193.536H392.696V198.408H407.36V199.92H390.872V193.536Z"/>
<path d="M426.064 210.48L412.696 211.248V201.648H421.048V195.744H412.696V194.16H422.872V203.232H414.52V209.52L426.064 208.92V210.48ZM430.384 214.8H428.56V202.704H424.48V201.072H428.56V193.392H430.384V214.8Z"/>
<path d="M156.886 239.2H166.462V233.776H159.262V222.304H175.51V233.776H168.334V239.2H177.91V240.784H156.886V239.2ZM161.086 223.888V232.192H173.686V223.888H161.086Z"/>
<path d="M198.846 233.416H197.022V221.392H198.846V233.416ZM182.958 234.616H198.798V242.656H182.958V234.616ZM184.782 236.152V241.072H196.974V236.152H184.782ZM186.438 221.32C189.966 221.32 192.678 223.672 192.678 227.032C192.678 230.392 189.966 232.744 186.438 232.744C182.91 232.744 180.198 230.392 180.198 227.032C180.198 223.672 182.91 221.32 186.438 221.32ZM186.438 231.16C189.126 231.16 190.854 229.432 190.854 227.032C190.854 224.632 189.126 222.904 186.438 222.904C183.75 222.904 182.022 224.632 182.022 227.032C182.022 229.432 183.75 231.16 186.438 231.16Z"/>
<path d="M225.233 237.592L223.985 238.984C221.921 237.496 219.785 235.168 218.225 232.768C217.913 232.312 217.649 231.88 217.409 231.424C217.241 231.832 217.049 232.216 216.857 232.624C215.441 235.504 213.377 237.832 210.953 239.632L209.729 238.36C214.409 235.168 217.145 229.672 217.217 222.064H219.089C219.089 224.152 218.897 226.072 218.513 227.824C218.393 228.352 218.249 228.88 218.105 229.384C218.825 230.92 219.785 232.384 220.961 233.8C222.209 235.288 223.625 236.56 225.233 237.592ZM229.793 242.8H227.969V221.392H229.793V242.8Z"/>
<path d="M251.281 237.184H249.458V221.392H251.281V227.392H254.234V229.024H251.281V237.184ZM251.978 242.56H235.753V235.504H237.577V240.976H251.978V242.56ZM234.001 223.72V222.136H245.042C245.114 228.688 239.642 233.008 233.786 234.352L232.874 232.912C238.658 231.688 242.521 227.848 243.025 223.72H234.001Z"/>
<path d="M255.418 230.992H276.442V232.528H255.418V230.992ZM265.93 220.528C269.914 220.528 272.986 222.352 272.986 225.04C272.986 227.728 269.914 229.552 265.93 229.552C261.946 229.552 258.874 227.728 258.874 225.04C258.874 222.352 261.946 220.528 265.93 220.528ZM265.93 228.064C268.858 228.064 271.162 226.864 271.162 225.04C271.162 223.216 268.858 222.016 265.93 222.016C263.002 222.016 260.698 223.216 260.698 225.04C260.698 226.864 263.002 228.064 265.93 228.064ZM274.642 242.656H257.674V237.76H272.314V235.936H257.674V234.448H274.138V239.2H259.498V241.144H274.642V242.656Z"/>
<path d="M297.165 242.8H295.293V233.68H285.957V232.096H301.797C302.061 230.824 302.277 229.504 302.493 228.16C302.709 226.6 302.877 225.112 302.949 223.648H287.997V222.064H304.821C304.749 224.176 304.581 226.096 304.341 227.824C304.125 229.336 303.885 230.752 303.621 232.096H306.981V233.68H297.165V242.8Z"/>
<path d="M320.117 234.136C320.117 237.28 318.053 239.944 314.861 239.944C311.669 239.944 309.605 237.28 309.605 234.136C309.605 230.992 311.669 228.328 314.861 228.328C318.053 228.328 320.117 230.992 320.117 234.136ZM323.933 242.2H322.133V221.632H323.933V230.152H327.029V221.392H328.853V242.776H327.029V231.784H323.933V242.2ZM318.317 234.136C318.317 231.832 317.093 229.888 314.861 229.888C312.629 229.888 311.405 231.832 311.405 234.136C311.405 236.44 312.629 238.384 314.861 238.384C317.093 238.384 318.317 236.44 318.317 234.136ZM320.669 226.84H308.813V225.256H320.669V226.84ZM318.149 223.264H311.573V221.68H318.149V223.264Z"/>
<path d="M351.445 230.008L350.509 231.496C347.821 231.064 345.229 229.96 343.237 228.4C342.685 227.944 342.181 227.488 341.725 226.984C341.173 227.632 340.501 228.208 339.757 228.76C337.741 230.2 335.149 231.208 332.821 231.52L331.861 230.056C335.581 229.576 338.845 227.92 340.453 225.688C340.909 225.04 341.221 224.368 341.365 223.648H333.469V222.064H350.101V223.648H343.357C343.261 224.344 343.021 225.016 342.661 225.664C343.597 226.816 344.749 227.728 346.165 228.4C347.629 229.096 349.405 229.648 351.445 230.008ZM342.733 242.8H340.861V235.216H331.285V233.632H352.309V235.216H342.733V242.8Z"/>
<path d="M369.621 242.224H367.821V230.368H363.909V228.736H367.821V221.608H369.621V242.224ZM374.181 242.776H372.357V221.392H374.181V242.776ZM354.861 239.632L353.517 238.552C357.261 234.856 359.589 229.024 359.709 222.136H361.533C361.461 224.704 361.149 227.056 360.597 229.264C361.725 232.6 363.861 235.72 366.453 237.856L365.253 239.128C363.045 237.208 361.125 234.496 359.877 231.592C358.653 234.856 356.901 237.448 354.861 239.632Z"/>
<path d="M387.101 221.344C391.781 221.344 394.925 224.392 394.925 227.848C394.925 231.304 391.781 234.352 387.101 234.352C382.421 234.352 379.277 231.304 379.277 227.848C379.277 224.392 382.421 221.344 387.101 221.344ZM387.101 232.768C390.797 232.768 393.101 230.488 393.101 227.848C393.101 225.208 390.797 222.928 387.101 222.928C383.405 222.928 381.101 225.208 381.101 227.848C381.101 230.488 383.405 232.768 387.101 232.768ZM376.613 239.2H381.413V234.664H383.261V239.2H391.061V234.664H392.909V239.2H397.637V240.784H376.613V239.2Z"/>
<path d="M400.549 239.416V241.72H402.853V239.416H400.549ZM402.685 221.92L402.373 237.472H401.029L400.717 221.92H402.685Z"/>
</mask>
<path d="M1 1H560V437H1V1Z" fill="#F4F7FF" fill-opacity="0.85"/>
<path d="M122.037 196.656V194.64C122.037 193.512 122.853 192.216 123.813 191.52L124.413 192.048C123.669 192.624 123.309 193.512 123.309 194.352H124.341V196.656H122.037Z" fill="#132B81"/>
<path d="M125.644 211.2H135.22V205.776H128.02V194.304H144.268V205.776H137.092V211.2H146.668V212.784H125.644V211.2ZM129.844 195.888V204.192H142.444V195.888H129.844Z" fill="#132B81"/>
<path d="M167.604 205.416H165.78V193.392H167.604V205.416ZM151.716 206.616H167.556V214.656H151.716V206.616ZM153.54 208.152V213.072H165.732V208.152H153.54ZM155.196 193.32C158.724 193.32 161.436 195.672 161.436 199.032C161.436 202.392 158.724 204.744 155.196 204.744C151.668 204.744 148.956 202.392 148.956 199.032C148.956 195.672 151.668 193.32 155.196 193.32ZM155.196 203.16C157.884 203.16 159.612 201.432 159.612 199.032C159.612 196.632 157.884 194.904 155.196 194.904C152.508 194.904 150.78 196.632 150.78 199.032C150.78 201.432 152.508 203.16 155.196 203.16Z" fill="#132B81"/>
<path d="M193.991 209.592L192.743 210.984C190.679 209.496 188.543 207.168 186.983 204.768C186.671 204.312 186.407 203.88 186.167 203.424C185.999 203.832 185.807 204.216 185.615 204.624C184.199 207.504 182.135 209.832 179.711 211.632L178.487 210.36C183.167 207.168 185.903 201.672 185.975 194.064H187.847C187.847 196.152 187.655 198.072 187.271 199.824C187.151 200.352 187.007 200.88 186.863 201.384C187.583 202.92 188.543 204.384 189.719 205.8C190.967 207.288 192.383 208.56 193.991 209.592ZM198.551 214.8H196.727V193.392H198.551V214.8Z" fill="#132B81"/>
<path d="M220.039 209.184H218.215V193.392H220.039V199.392H222.991V201.024H220.039V209.184ZM220.735 214.56H204.511V207.504H206.335V212.976H220.735V214.56ZM202.759 195.72V194.136H213.799C213.871 200.688 208.399 205.008 202.543 206.352L201.631 204.912C207.415 203.688 211.279 199.848 211.783 195.72H202.759Z" fill="#132B81"/>
<path d="M244.722 205.104C248.73 205.104 251.538 207.24 251.538 210.168C251.538 213.096 248.73 215.232 244.722 215.232C240.666 215.232 237.906 213.096 237.906 210.168C237.906 207.24 240.666 205.104 244.722 205.104ZM244.722 213.648C247.89 213.648 249.714 212.184 249.714 210.168C249.714 208.152 247.89 206.688 244.722 206.688C241.554 206.688 239.73 208.152 239.73 210.168C239.73 212.184 241.554 213.648 244.722 213.648ZM246.498 194.136V195.672H241.194C241.074 196.44 240.834 197.184 240.522 197.904L240.33 198.264C240.666 198.672 241.074 199.08 241.53 199.464C243.09 200.784 245.202 201.888 247.314 202.464L246.354 203.976C244.482 203.352 242.37 202.2 240.642 200.712C240.234 200.376 239.874 200.016 239.562 199.656C239.25 200.112 238.938 200.52 238.578 200.928C236.97 202.752 234.858 204.192 232.77 204.984L231.714 203.616C234.954 202.464 237.522 200.208 238.722 197.376C238.938 196.824 239.106 196.272 239.226 195.672H233.082V194.136H246.498ZM245.106 199.344V197.808H249.762V193.392H251.586V205.32H249.762V199.344H245.106Z" fill="#132B81"/>
<path d="M265.562 195.168H258.362V193.584H265.562V195.168ZM268.682 198.792H255.146V197.208H268.682V198.792ZM261.914 200.328C265.634 200.328 267.89 202.992 267.89 206.136C267.89 209.28 265.634 211.944 261.914 211.944C258.194 211.944 255.938 209.28 255.938 206.136C255.938 202.992 258.194 200.328 261.914 200.328ZM261.914 210.384C264.722 210.384 266.066 208.392 266.066 206.16C266.066 203.856 264.722 201.888 261.914 201.888C259.106 201.888 257.762 203.856 257.762 206.16C257.762 208.392 259.106 210.384 261.914 210.384ZM272.978 214.8H271.154V193.392H272.978V202.512H276.458V204.144H272.978V214.8Z" fill="#132B81"/>
<path d="M296.603 214.8H294.779V193.392H296.603V214.8ZM279.01 195.888V194.304H290.194C290.266 202.176 285.755 208.272 279.539 211.536L278.339 210.192C284.29 207.312 287.962 201.6 288.227 195.888H279.01Z" fill="#132B81"/>
<path d="M301.531 192.576V194.592C301.531 195.744 300.715 197.016 299.755 197.712L299.155 197.184C299.899 196.608 300.259 195.72 300.259 194.88H299.227V192.576H301.531Z" fill="#132B81"/>
<path d="M323.357 194.064H325.181V200.832H330.029V193.392H331.853V214.8H330.029V202.464H325.181V210.768H314.164V194.064H315.988V200.304H323.357V194.064ZM315.988 209.184H323.357V201.888H315.988V209.184Z" fill="#132B81"/>
<path d="M335.293 205.632H356.317V207.168H335.293V205.632ZM354.757 214.56H337.645V208.704H339.469V212.976H354.757V214.56ZM353.677 197.736V199.224H339.493V201.912H354.277V203.472H337.669V193.632H353.917V195.168H339.493V197.736H353.677Z" fill="#132B81"/>
<path d="M357.957 202.992H378.981V204.528H357.957V202.992ZM368.469 192.528C372.453 192.528 375.525 194.352 375.525 197.04C375.525 199.728 372.453 201.552 368.469 201.552C364.485 201.552 361.413 199.728 361.413 197.04C361.413 194.352 364.485 192.528 368.469 192.528ZM368.469 200.064C371.397 200.064 373.701 198.864 373.701 197.04C373.701 195.216 371.397 194.016 368.469 194.016C365.541 194.016 363.237 195.216 363.237 197.04C363.237 198.864 365.541 200.064 368.469 200.064ZM377.181 214.656H360.213V209.76H374.853V207.936H360.213V206.448H376.677V211.2H362.037V213.144H377.181V214.656Z" fill="#132B81"/>
<path d="M388.496 202.08H409.52V203.616H399.944V205.968H407.216V210.96H392.576V213.144H407.72V214.656H390.752V209.52H405.392V207.456H390.752V205.968H398.072V203.616H388.496V202.08ZM390.872 193.536H392.696V198.408H407.36V199.92H390.872V193.536Z" fill="#132B81"/>
<path d="M426.064 210.48L412.696 211.248V201.648H421.048V195.744H412.696V194.16H422.872V203.232H414.52V209.52L426.064 208.92V210.48ZM430.384 214.8H428.56V202.704H424.48V201.072H428.56V193.392H430.384V214.8Z" fill="#132B81"/>
<path d="M156.886 239.2H166.462V233.776H159.262V222.304H175.51V233.776H168.334V239.2H177.91V240.784H156.886V239.2ZM161.086 223.888V232.192H173.686V223.888H161.086Z" fill="#132B81"/>
<path d="M198.846 233.416H197.022V221.392H198.846V233.416ZM182.958 234.616H198.798V242.656H182.958V234.616ZM184.782 236.152V241.072H196.974V236.152H184.782ZM186.438 221.32C189.966 221.32 192.678 223.672 192.678 227.032C192.678 230.392 189.966 232.744 186.438 232.744C182.91 232.744 180.198 230.392 180.198 227.032C180.198 223.672 182.91 221.32 186.438 221.32ZM186.438 231.16C189.126 231.16 190.854 229.432 190.854 227.032C190.854 224.632 189.126 222.904 186.438 222.904C183.75 222.904 182.022 224.632 182.022 227.032C182.022 229.432 183.75 231.16 186.438 231.16Z" fill="#132B81"/>
<path d="M225.233 237.592L223.985 238.984C221.921 237.496 219.785 235.168 218.225 232.768C217.913 232.312 217.649 231.88 217.409 231.424C217.241 231.832 217.049 232.216 216.857 232.624C215.441 235.504 213.377 237.832 210.953 239.632L209.729 238.36C214.409 235.168 217.145 229.672 217.217 222.064H219.089C219.089 224.152 218.897 226.072 218.513 227.824C218.393 228.352 218.249 228.88 218.105 229.384C218.825 230.92 219.785 232.384 220.961 233.8C222.209 235.288 223.625 236.56 225.233 237.592ZM229.793 242.8H227.969V221.392H229.793V242.8Z" fill="#132B81"/>
<path d="M251.281 237.184H249.458V221.392H251.281V227.392H254.234V229.024H251.281V237.184ZM251.978 242.56H235.753V235.504H237.577V240.976H251.978V242.56ZM234.001 223.72V222.136H245.042C245.114 228.688 239.642 233.008 233.786 234.352L232.874 232.912C238.658 231.688 242.521 227.848 243.025 223.72H234.001Z" fill="#132B81"/>
<path d="M255.418 230.992H276.442V232.528H255.418V230.992ZM265.93 220.528C269.914 220.528 272.986 222.352 272.986 225.04C272.986 227.728 269.914 229.552 265.93 229.552C261.946 229.552 258.874 227.728 258.874 225.04C258.874 222.352 261.946 220.528 265.93 220.528ZM265.93 228.064C268.858 228.064 271.162 226.864 271.162 225.04C271.162 223.216 268.858 222.016 265.93 222.016C263.002 222.016 260.698 223.216 260.698 225.04C260.698 226.864 263.002 228.064 265.93 228.064ZM274.642 242.656H257.674V237.76H272.314V235.936H257.674V234.448H274.138V239.2H259.498V241.144H274.642V242.656Z" fill="#132B81"/>
<path d="M297.165 242.8H295.293V233.68H285.957V232.096H301.797C302.061 230.824 302.277 229.504 302.493 228.16C302.709 226.6 302.877 225.112 302.949 223.648H287.997V222.064H304.821C304.749 224.176 304.581 226.096 304.341 227.824C304.125 229.336 303.885 230.752 303.621 232.096H306.981V233.68H297.165V242.8Z" fill="#132B81"/>
<path d="M320.117 234.136C320.117 237.28 318.053 239.944 314.861 239.944C311.669 239.944 309.605 237.28 309.605 234.136C309.605 230.992 311.669 228.328 314.861 228.328C318.053 228.328 320.117 230.992 320.117 234.136ZM323.933 242.2H322.133V221.632H323.933V230.152H327.029V221.392H328.853V242.776H327.029V231.784H323.933V242.2ZM318.317 234.136C318.317 231.832 317.093 229.888 314.861 229.888C312.629 229.888 311.405 231.832 311.405 234.136C311.405 236.44 312.629 238.384 314.861 238.384C317.093 238.384 318.317 236.44 318.317 234.136ZM320.669 226.84H308.813V225.256H320.669V226.84ZM318.149 223.264H311.573V221.68H318.149V223.264Z" fill="#132B81"/>
<path d="M351.445 230.008L350.509 231.496C347.821 231.064 345.229 229.96 343.237 228.4C342.685 227.944 342.181 227.488 341.725 226.984C341.173 227.632 340.501 228.208 339.757 228.76C337.741 230.2 335.149 231.208 332.821 231.52L331.861 230.056C335.581 229.576 338.845 227.92 340.453 225.688C340.909 225.04 341.221 224.368 341.365 223.648H333.469V222.064H350.101V223.648H343.357C343.261 224.344 343.021 225.016 342.661 225.664C343.597 226.816 344.749 227.728 346.165 228.4C347.629 229.096 349.405 229.648 351.445 230.008ZM342.733 242.8H340.861V235.216H331.285V233.632H352.309V235.216H342.733V242.8Z" fill="#132B81"/>
<path d="M369.621 242.224H367.821V230.368H363.909V228.736H367.821V221.608H369.621V242.224ZM374.181 242.776H372.357V221.392H374.181V242.776ZM354.861 239.632L353.517 238.552C357.261 234.856 359.589 229.024 359.709 222.136H361.533C361.461 224.704 361.149 227.056 360.597 229.264C361.725 232.6 363.861 235.72 366.453 237.856L365.253 239.128C363.045 237.208 361.125 234.496 359.877 231.592C358.653 234.856 356.901 237.448 354.861 239.632Z" fill="#132B81"/>
<path d="M387.101 221.344C391.781 221.344 394.925 224.392 394.925 227.848C394.925 231.304 391.781 234.352 387.101 234.352C382.421 234.352 379.277 231.304 379.277 227.848C379.277 224.392 382.421 221.344 387.101 221.344ZM387.101 232.768C390.797 232.768 393.101 230.488 393.101 227.848C393.101 225.208 390.797 222.928 387.101 222.928C383.405 222.928 381.101 225.208 381.101 227.848C381.101 230.488 383.405 232.768 387.101 232.768ZM376.613 239.2H381.413V234.664H383.261V239.2H391.061V234.664H392.909V239.2H397.637V240.784H376.613V239.2Z" fill="#132B81"/>
<path d="M400.549 239.416V241.72H402.853V239.416H400.549ZM402.685 221.92L402.373 237.472H401.029L400.717 221.92H402.685Z" fill="#132B81"/>
<path d="M1 1H560V437H1V1Z" stroke="#132B81" stroke-opacity="0.31" stroke-width="2" mask="url(#path-1-outside-1_308_339)"/>
<path d="M122.037 196.656V194.64C122.037 193.512 122.853 192.216 123.813 191.52L124.413 192.048C123.669 192.624 123.309 193.512 123.309 194.352H124.341V196.656H122.037Z" stroke="#132B81" stroke-opacity="0.31" stroke-width="2" mask="url(#path-1-outside-1_308_339)"/>
<path d="M125.644 211.2H135.22V205.776H128.02V194.304H144.268V205.776H137.092V211.2H146.668V212.784H125.644V211.2ZM129.844 195.888V204.192H142.444V195.888H129.844Z" stroke="#132B81" stroke-opacity="0.31" stroke-width="2" mask="url(#path-1-outside-1_308_339)"/>
<path d="M167.604 205.416H165.78V193.392H167.604V205.416ZM151.716 206.616H167.556V214.656H151.716V206.616ZM153.54 208.152V213.072H165.732V208.152H153.54ZM155.196 193.32C158.724 193.32 161.436 195.672 161.436 199.032C161.436 202.392 158.724 204.744 155.196 204.744C151.668 204.744 148.956 202.392 148.956 199.032C148.956 195.672 151.668 193.32 155.196 193.32ZM155.196 203.16C157.884 203.16 159.612 201.432 159.612 199.032C159.612 196.632 157.884 194.904 155.196 194.904C152.508 194.904 150.78 196.632 150.78 199.032C150.78 201.432 152.508 203.16 155.196 203.16Z" stroke="#132B81" stroke-opacity="0.31" stroke-width="2" mask="url(#path-1-outside-1_308_339)"/>
<path d="M193.991 209.592L192.743 210.984C190.679 209.496 188.543 207.168 186.983 204.768C186.671 204.312 186.407 203.88 186.167 203.424C185.999 203.832 185.807 204.216 185.615 204.624C184.199 207.504 182.135 209.832 179.711 211.632L178.487 210.36C183.167 207.168 185.903 201.672 185.975 194.064H187.847C187.847 196.152 187.655 198.072 187.271 199.824C187.151 200.352 187.007 200.88 186.863 201.384C187.583 202.92 188.543 204.384 189.719 205.8C190.967 207.288 192.383 208.56 193.991 209.592ZM198.551 214.8H196.727V193.392H198.551V214.8Z" stroke="#132B81" stroke-opacity="0.31" stroke-width="2" mask="url(#path-1-outside-1_308_339)"/>
<path d="M220.039 209.184H218.215V193.392H220.039V199.392H222.991V201.024H220.039V209.184ZM220.735 214.56H204.511V207.504H206.335V212.976H220.735V214.56ZM202.759 195.72V194.136H213.799C213.871 200.688 208.399 205.008 202.543 206.352L201.631 204.912C207.415 203.688 211.279 199.848 211.783 195.72H202.759Z" stroke="#132B81" stroke-opacity="0.31" stroke-width="2" mask="url(#path-1-outside-1_308_339)"/>
<path d="M244.722 205.104C248.73 205.104 251.538 207.24 251.538 210.168C251.538 213.096 248.73 215.232 244.722 215.232C240.666 215.232 237.906 213.096 237.906 210.168C237.906 207.24 240.666 205.104 244.722 205.104ZM244.722 213.648C247.89 213.648 249.714 212.184 249.714 210.168C249.714 208.152 247.89 206.688 244.722 206.688C241.554 206.688 239.73 208.152 239.73 210.168C239.73 212.184 241.554 213.648 244.722 213.648ZM246.498 194.136V195.672H241.194C241.074 196.44 240.834 197.184 240.522 197.904L240.33 198.264C240.666 198.672 241.074 199.08 241.53 199.464C243.09 200.784 245.202 201.888 247.314 202.464L246.354 203.976C244.482 203.352 242.37 202.2 240.642 200.712C240.234 200.376 239.874 200.016 239.562 199.656C239.25 200.112 238.938 200.52 238.578 200.928C236.97 202.752 234.858 204.192 232.77 204.984L231.714 203.616C234.954 202.464 237.522 200.208 238.722 197.376C238.938 196.824 239.106 196.272 239.226 195.672H233.082V194.136H246.498ZM245.106 199.344V197.808H249.762V193.392H251.586V205.32H249.762V199.344H245.106Z" stroke="#132B81" stroke-opacity="0.31" stroke-width="2" mask="url(#path-1-outside-1_308_339)"/>
<path d="M265.562 195.168H258.362V193.584H265.562V195.168ZM268.682 198.792H255.146V197.208H268.682V198.792ZM261.914 200.328C265.634 200.328 267.89 202.992 267.89 206.136C267.89 209.28 265.634 211.944 261.914 211.944C258.194 211.944 255.938 209.28 255.938 206.136C255.938 202.992 258.194 200.328 261.914 200.328ZM261.914 210.384C264.722 210.384 266.066 208.392 266.066 206.16C266.066 203.856 264.722 201.888 261.914 201.888C259.106 201.888 257.762 203.856 257.762 206.16C257.762 208.392 259.106 210.384 261.914 210.384ZM272.978 214.8H271.154V193.392H272.978V202.512H276.458V204.144H272.978V214.8Z" stroke="#132B81" stroke-opacity="0.31" stroke-width="2" mask="url(#path-1-outside-1_308_339)"/>
<path d="M296.603 214.8H294.779V193.392H296.603V214.8ZM279.01 195.888V194.304H290.194C290.266 202.176 285.755 208.272 279.539 211.536L278.339 210.192C284.29 207.312 287.962 201.6 288.227 195.888H279.01Z" stroke="#132B81" stroke-opacity="0.31" stroke-width="2" mask="url(#path-1-outside-1_308_339)"/>
<path d="M301.531 192.576V194.592C301.531 195.744 300.715 197.016 299.755 197.712L299.155 197.184C299.899 196.608 300.259 195.72 300.259 194.88H299.227V192.576H301.531Z" stroke="#132B81" stroke-opacity="0.31" stroke-width="2" mask="url(#path-1-outside-1_308_339)"/>
<path d="M323.357 194.064H325.181V200.832H330.029V193.392H331.853V214.8H330.029V202.464H325.181V210.768H314.164V194.064H315.988V200.304H323.357V194.064ZM315.988 209.184H323.357V201.888H315.988V209.184Z" stroke="#132B81" stroke-opacity="0.31" stroke-width="2" mask="url(#path-1-outside-1_308_339)"/>
<path d="M335.293 205.632H356.317V207.168H335.293V205.632ZM354.757 214.56H337.645V208.704H339.469V212.976H354.757V214.56ZM353.677 197.736V199.224H339.493V201.912H354.277V203.472H337.669V193.632H353.917V195.168H339.493V197.736H353.677Z" stroke="#132B81" stroke-opacity="0.31" stroke-width="2" mask="url(#path-1-outside-1_308_339)"/>
<path d="M357.957 202.992H378.981V204.528H357.957V202.992ZM368.469 192.528C372.453 192.528 375.525 194.352 375.525 197.04C375.525 199.728 372.453 201.552 368.469 201.552C364.485 201.552 361.413 199.728 361.413 197.04C361.413 194.352 364.485 192.528 368.469 192.528ZM368.469 200.064C371.397 200.064 373.701 198.864 373.701 197.04C373.701 195.216 371.397 194.016 368.469 194.016C365.541 194.016 363.237 195.216 363.237 197.04C363.237 198.864 365.541 200.064 368.469 200.064ZM377.181 214.656H360.213V209.76H374.853V207.936H360.213V206.448H376.677V211.2H362.037V213.144H377.181V214.656Z" stroke="#132B81" stroke-opacity="0.31" stroke-width="2" mask="url(#path-1-outside-1_308_339)"/>
<path d="M388.496 202.08H409.52V203.616H399.944V205.968H407.216V210.96H392.576V213.144H407.72V214.656H390.752V209.52H405.392V207.456H390.752V205.968H398.072V203.616H388.496V202.08ZM390.872 193.536H392.696V198.408H407.36V199.92H390.872V193.536Z" stroke="#132B81" stroke-opacity="0.31" stroke-width="2" mask="url(#path-1-outside-1_308_339)"/>
<path d="M426.064 210.48L412.696 211.248V201.648H421.048V195.744H412.696V194.16H422.872V203.232H414.52V209.52L426.064 208.92V210.48ZM430.384 214.8H428.56V202.704H424.48V201.072H428.56V193.392H430.384V214.8Z" stroke="#132B81" stroke-opacity="0.31" stroke-width="2" mask="url(#path-1-outside-1_308_339)"/>
<path d="M156.886 239.2H166.462V233.776H159.262V222.304H175.51V233.776H168.334V239.2H177.91V240.784H156.886V239.2ZM161.086 223.888V232.192H173.686V223.888H161.086Z" stroke="#132B81" stroke-opacity="0.31" stroke-width="2" mask="url(#path-1-outside-1_308_339)"/>
<path d="M198.846 233.416H197.022V221.392H198.846V233.416ZM182.958 234.616H198.798V242.656H182.958V234.616ZM184.782 236.152V241.072H196.974V236.152H184.782ZM186.438 221.32C189.966 221.32 192.678 223.672 192.678 227.032C192.678 230.392 189.966 232.744 186.438 232.744C182.91 232.744 180.198 230.392 180.198 227.032C180.198 223.672 182.91 221.32 186.438 221.32ZM186.438 231.16C189.126 231.16 190.854 229.432 190.854 227.032C190.854 224.632 189.126 222.904 186.438 222.904C183.75 222.904 182.022 224.632 182.022 227.032C182.022 229.432 183.75 231.16 186.438 231.16Z" stroke="#132B81" stroke-opacity="0.31" stroke-width="2" mask="url(#path-1-outside-1_308_339)"/>
<path d="M225.233 237.592L223.985 238.984C221.921 237.496 219.785 235.168 218.225 232.768C217.913 232.312 217.649 231.88 217.409 231.424C217.241 231.832 217.049 232.216 216.857 232.624C215.441 235.504 213.377 237.832 210.953 239.632L209.729 238.36C214.409 235.168 217.145 229.672 217.217 222.064H219.089C219.089 224.152 218.897 226.072 218.513 227.824C218.393 228.352 218.249 228.88 218.105 229.384C218.825 230.92 219.785 232.384 220.961 233.8C222.209 235.288 223.625 236.56 225.233 237.592ZM229.793 242.8H227.969V221.392H229.793V242.8Z" stroke="#132B81" stroke-opacity="0.31" stroke-width="2" mask="url(#path-1-outside-1_308_339)"/>
<path d="M251.281 237.184H249.458V221.392H251.281V227.392H254.234V229.024H251.281V237.184ZM251.978 242.56H235.753V235.504H237.577V240.976H251.978V242.56ZM234.001 223.72V222.136H245.042C245.114 228.688 239.642 233.008 233.786 234.352L232.874 232.912C238.658 231.688 242.521 227.848 243.025 223.72H234.001Z" stroke="#132B81" stroke-opacity="0.31" stroke-width="2" mask="url(#path-1-outside-1_308_339)"/>
<path d="M255.418 230.992H276.442V232.528H255.418V230.992ZM265.93 220.528C269.914 220.528 272.986 222.352 272.986 225.04C272.986 227.728 269.914 229.552 265.93 229.552C261.946 229.552 258.874 227.728 258.874 225.04C258.874 222.352 261.946 220.528 265.93 220.528ZM265.93 228.064C268.858 228.064 271.162 226.864 271.162 225.04C271.162 223.216 268.858 222.016 265.93 222.016C263.002 222.016 260.698 223.216 260.698 225.04C260.698 226.864 263.002 228.064 265.93 228.064ZM274.642 242.656H257.674V237.76H272.314V235.936H257.674V234.448H274.138V239.2H259.498V241.144H274.642V242.656Z" stroke="#132B81" stroke-opacity="0.31" stroke-width="2" mask="url(#path-1-outside-1_308_339)"/>
<path d="M297.165 242.8H295.293V233.68H285.957V232.096H301.797C302.061 230.824 302.277 229.504 302.493 228.16C302.709 226.6 302.877 225.112 302.949 223.648H287.997V222.064H304.821C304.749 224.176 304.581 226.096 304.341 227.824C304.125 229.336 303.885 230.752 303.621 232.096H306.981V233.68H297.165V242.8Z" stroke="#132B81" stroke-opacity="0.31" stroke-width="2" mask="url(#path-1-outside-1_308_339)"/>
<path d="M320.117 234.136C320.117 237.28 318.053 239.944 314.861 239.944C311.669 239.944 309.605 237.28 309.605 234.136C309.605 230.992 311.669 228.328 314.861 228.328C318.053 228.328 320.117 230.992 320.117 234.136ZM323.933 242.2H322.133V221.632H323.933V230.152H327.029V221.392H328.853V242.776H327.029V231.784H323.933V242.2ZM318.317 234.136C318.317 231.832 317.093 229.888 314.861 229.888C312.629 229.888 311.405 231.832 311.405 234.136C311.405 236.44 312.629 238.384 314.861 238.384C317.093 238.384 318.317 236.44 318.317 234.136ZM320.669 226.84H308.813V225.256H320.669V226.84ZM318.149 223.264H311.573V221.68H318.149V223.264Z" stroke="#132B81" stroke-opacity="0.31" stroke-width="2" mask="url(#path-1-outside-1_308_339)"/>
<path d="M351.445 230.008L350.509 231.496C347.821 231.064 345.229 229.96 343.237 228.4C342.685 227.944 342.181 227.488 341.725 226.984C341.173 227.632 340.501 228.208 339.757 228.76C337.741 230.2 335.149 231.208 332.821 231.52L331.861 230.056C335.581 229.576 338.845 227.92 340.453 225.688C340.909 225.04 341.221 224.368 341.365 223.648H333.469V222.064H350.101V223.648H343.357C343.261 224.344 343.021 225.016 342.661 225.664C343.597 226.816 344.749 227.728 346.165 228.4C347.629 229.096 349.405 229.648 351.445 230.008ZM342.733 242.8H340.861V235.216H331.285V233.632H352.309V235.216H342.733V242.8Z" stroke="#132B81" stroke-opacity="0.31" stroke-width="2" mask="url(#path-1-outside-1_308_339)"/>
<path d="M369.621 242.224H367.821V230.368H363.909V228.736H367.821V221.608H369.621V242.224ZM374.181 242.776H372.357V221.392H374.181V242.776ZM354.861 239.632L353.517 238.552C357.261 234.856 359.589 229.024 359.709 222.136H361.533C361.461 224.704 361.149 227.056 360.597 229.264C361.725 232.6 363.861 235.72 366.453 237.856L365.253 239.128C363.045 237.208 361.125 234.496 359.877 231.592C358.653 234.856 356.901 237.448 354.861 239.632Z" stroke="#132B81" stroke-opacity="0.31" stroke-width="2" mask="url(#path-1-outside-1_308_339)"/>
<path d="M387.101 221.344C391.781 221.344 394.925 224.392 394.925 227.848C394.925 231.304 391.781 234.352 387.101 234.352C382.421 234.352 379.277 231.304 379.277 227.848C379.277 224.392 382.421 221.344 387.101 221.344ZM387.101 232.768C390.797 232.768 393.101 230.488 393.101 227.848C393.101 225.208 390.797 222.928 387.101 222.928C383.405 222.928 381.101 225.208 381.101 227.848C381.101 230.488 383.405 232.768 387.101 232.768ZM376.613 239.2H381.413V234.664H383.261V239.2H391.061V234.664H392.909V239.2H397.637V240.784H376.613V239.2Z" stroke="#132B81" stroke-opacity="0.31" stroke-width="2" mask="url(#path-1-outside-1_308_339)"/>
<path d="M400.549 239.416V241.72H402.853V239.416H400.549ZM402.685 221.92L402.373 237.472H401.029L400.717 221.92H402.685Z" stroke="#132B81" stroke-opacity="0.31" stroke-width="2" mask="url(#path-1-outside-1_308_339)"/>
</svg>
