<svg width="90" height="40" viewBox="0 0 90 40" fill="none" xmlns="http://www.w3.org/2000/svg">
<path d="M0 0H90V40H0V0Z" fill="#132B81"/>
<path d="M24.4282 22.624H23.2443C23.3883 21.984 23.5003 21.312 23.6123 20.592L23.8522 18.736L13.8042 18.88V17.824L23.9323 17.696C23.9803 17.248 24.0123 16.8 24.0283 16.368C24.0763 15.712 24.0923 15.12 24.0923 14.592H14.1243V13.536H25.3403C25.3403 16.688 25.0682 20.032 24.4282 22.624ZM12.7002 24.8H18.1562V20.56H19.4043V24.8H26.7163V25.856H12.7002V24.8Z" fill="white"/>
<path d="M27.8096 24.64H41.8256V25.696H27.8096V24.64ZM40.5296 20.112L40.5456 21.184H29.3936V13.536H40.2256L40.2096 14.592H30.6096V20.112H40.5296Z" fill="white"/>
<path d="M61.033 20.48H59.817V12.928H61.033V20.48ZM59.785 21.216H61.001V27.104H50.441V21.216H51.657V22.944H59.785V21.216ZM51.657 26.048H59.785V23.968H51.657V26.048ZM52.761 12.816C55.017 12.816 56.857 14.368 56.857 16.544C56.857 18.72 55.017 20.272 52.761 20.272C50.505 20.272 48.665 18.72 48.665 16.544C48.665 14.368 50.505 12.816 52.761 12.816ZM52.761 19.248C54.473 19.248 55.641 18.128 55.641 16.544C55.641 14.96 54.473 13.84 52.761 13.84C51.049 13.84 49.881 14.96 49.881 16.544C49.881 18.128 51.049 19.248 52.761 19.248Z" fill="white"/>
<path d="M71.1184 17.76H65.4544V20.288L73.3104 19.984V20.992L64.2384 21.408V16.768H69.9024V14.32H64.2384V13.296H71.1184V17.76ZM76.1424 21.904H74.9264V18.624H72.0944V17.584H74.9264V15.744H72.0944V14.704H74.9264V12.928H76.1424V21.904ZM76.1104 27.264H74.8944V23.76H65.0704V22.704H76.1104V27.264Z" fill="white"/>
</svg>
