<svg width="75" height="31" viewBox="0 0 75 31" fill="none" xmlns="http://www.w3.org/2000/svg">
<path d="M0 0H75V31H0V0Z" fill="#132B81"/>
<path d="M18.76 19.896L7.848 20.056V19L12.632 18.952V17.336C12.344 17.304 12.072 17.256 11.8 17.176C10.456 16.776 9.448 15.8 9.448 14.568C9.448 12.904 11.224 11.768 13.256 11.768C15.288 11.768 17.064 12.904 17.064 14.568C17.064 15.8 16.056 16.776 14.712 17.176C14.44 17.256 14.168 17.304 13.88 17.336V18.936L18.76 18.872V19.896ZM20.616 22.2H19.4V7.928H20.616V22.2ZM13.256 16.344C14.808 16.344 15.848 15.592 15.848 14.568C15.848 13.544 14.808 12.792 13.256 12.792C11.704 12.792 10.664 13.544 10.664 14.568C10.664 15.592 11.704 16.344 13.256 16.344ZM18.024 11.208H8.488V10.152H18.024V11.208ZM10.616 8.12H15.896V9.176H10.616V8.12Z" fill="white"/>
<path d="M28.1094 7.576C30.3974 7.576 32.1094 8.808 32.1094 10.648C32.1094 12.488 30.3974 13.72 28.1094 13.72C25.8214 13.72 24.1094 12.488 24.1094 10.648C24.1094 8.808 25.8214 7.576 28.1094 7.576ZM28.1094 12.696C29.7734 12.696 30.8934 11.848 30.8934 10.648C30.8934 9.448 29.7734 8.6 28.1094 8.6C26.4454 8.6 25.3254 9.448 25.3254 10.648C25.3254 11.848 26.4454 12.696 28.1094 12.696ZM35.8214 19.048H34.6054V17.736H30.7974V16.728H34.6054V7.928H35.8214V19.048ZM36.1094 21.928H24.9894V18.36H26.2054V20.872H36.1094V21.928ZM33.6774 15.544L28.5094 15.624V18.296H27.2614V15.64L22.9414 15.704V14.68L33.6774 14.552V15.544Z" fill="white"/>
<path d="M50.4347 22.104H39.6828V18.648H48.8988V17.224H39.6828V16.232H50.1147V19.608H40.8988V21.08H50.4347V22.104ZM46.1468 11.064V12.024H39.6828V13.88L47.9388 13.576V14.552L38.4668 14.968V8.296H46.3068V9.288H39.6828V11.064H46.1468ZM50.1147 15.496H48.8988V7.928H50.1147V11.032H52.0827V12.088H50.1147V15.496Z" fill="white"/>
<path d="M62.5841 11.912V12.936H55.5121V15.336H63.0641V16.408H59.3841V18.904L64.0881 18.84V19.896L53.1761 20.056V18.968L58.1361 18.92V16.408H54.2961V8.536H62.7441V9.592H55.5121V11.912H62.5841ZM65.9441 22.2H64.7281V7.928H65.9441V22.2Z" fill="white"/>
</svg>
