<svg width="52" height="31" viewBox="0 0 52 31" fill="none" xmlns="http://www.w3.org/2000/svg">
<path d="M0 0H52V31H0V0Z" fill="#132B81"/>
<path d="M21.768 18.776L20.952 19.72C19.56 18.728 18.152 17.256 17.064 15.656C16.856 15.336 16.648 15.016 16.472 14.68C16.328 15.048 16.152 15.4 15.976 15.736C15.016 17.576 13.704 19.016 12.184 20.152L11.368 19.304C13.496 17.816 15.112 15.512 15.88 12.424C16.104 11.544 16.248 10.6 16.328 9.592H12.248V8.536H21.096V9.592H17.608C17.544 10.712 17.384 11.752 17.128 12.712C17.08 12.936 17.016 13.144 16.952 13.352C17.416 14.408 18.072 15.4 18.904 16.328C19.752 17.272 20.712 18.088 21.768 18.776ZM24.68 22.2H23.464V13.816H20.056V12.728H23.464V7.928H24.68V22.2Z" fill="white"/>
<path d="M34.8134 15.736C37.4854 15.736 39.3574 17.16 39.3574 19.112C39.3574 21.064 37.4854 22.488 34.8134 22.488C32.1094 22.488 30.2694 21.064 30.2694 19.112C30.2694 17.16 32.1094 15.736 34.8134 15.736ZM34.8134 21.432C36.9254 21.432 38.1414 20.456 38.1414 19.112C38.1414 17.768 36.9254 16.792 34.8134 16.792C32.7014 16.792 31.4854 17.768 31.4854 19.112C31.4854 20.456 32.7014 21.432 34.8134 21.432ZM36.1254 8.424V9.48H32.5734C32.4934 9.976 32.3494 10.472 32.1414 10.936L32.0454 11.128C32.2694 11.384 32.5254 11.64 32.8134 11.88C33.8534 12.76 35.2614 13.496 36.6694 13.88L36.0294 14.888C34.7814 14.472 33.3734 13.704 32.2214 12.712C31.9814 12.504 31.7414 12.28 31.5334 12.04C31.3254 12.36 31.1014 12.664 30.8454 12.952C29.7734 14.168 28.3654 15.128 26.9734 15.656L26.2694 14.744C28.4294 13.976 30.1414 12.472 30.9414 10.584C31.0854 10.232 31.1974 9.864 31.2774 9.48H27.1814V8.424H36.1254ZM39.1654 15.88H37.9494V7.928H39.1654V11.048H41.1334V12.136H39.1654V15.88Z" fill="white"/>
</svg>
