<svg width="91" height="54" viewBox="0 0 91 54" fill="none" xmlns="http://www.w3.org/2000/svg">
<path d="M0 0H91V54H0V0Z" fill="#132B81"/>
<path d="M38.2015 31.164L36.9429 32.58C34.7959 31.092 32.6243 28.884 30.9462 26.484C30.6254 26.004 30.3045 25.524 30.0331 25.02C29.811 25.572 29.5395 26.1 29.2681 26.604C27.7874 29.364 25.7638 31.524 23.4194 33.228L22.1608 31.956C25.443 29.724 27.9355 26.268 29.12 21.636C29.4655 20.316 29.6876 18.9 29.811 17.388H23.5181V15.804H37.165V17.388H31.7852C31.6865 19.068 31.4397 20.628 31.0449 22.068C30.9708 22.404 30.8721 22.716 30.7734 23.028C31.4891 24.612 32.5009 26.1 33.7841 27.492C35.0921 28.908 36.5727 30.132 38.2015 31.164ZM42.6929 36.3H40.8174V23.724H35.5609V22.092H40.8174V14.892H42.6929V36.3Z" fill="white"/>
<path d="M58.3223 26.604C62.4435 26.604 65.3309 28.74 65.3309 31.668C65.3309 34.596 62.4435 36.732 58.3223 36.732C54.1517 36.732 51.3138 34.596 51.3138 31.668C51.3138 28.74 54.1517 26.604 58.3223 26.604ZM58.3223 35.148C61.5798 35.148 63.4553 33.684 63.4553 31.668C63.4553 29.652 61.5798 28.188 58.3223 28.188C55.0648 28.188 53.1893 29.652 53.1893 31.668C53.1893 33.684 55.0648 35.148 58.3223 35.148ZM60.3459 15.636V17.22H54.8674C54.744 17.964 54.5219 18.708 54.2011 19.404L54.053 19.692C54.3985 20.076 54.7934 20.46 55.2376 20.82C56.8416 22.14 59.0133 23.244 61.185 23.82L60.1978 25.332C58.273 24.708 56.1013 23.556 54.3245 22.068C53.9543 21.756 53.5842 21.42 53.2633 21.06C52.9425 21.54 52.597 21.996 52.2022 22.428C50.5488 24.252 48.3771 25.692 46.2301 26.484L45.1443 25.116C48.4758 23.964 51.1164 21.708 52.3503 18.876C52.5724 18.348 52.7451 17.796 52.8685 17.22H46.5509V15.636H60.3459ZM65.0347 26.82H63.1592V14.892H65.0347V19.572H68.0701V21.204H65.0347V26.82Z" fill="white"/>
</svg>
