<svg width="190" height="60" viewBox="0 0 190 60" fill="none" xmlns="http://www.w3.org/2000/svg">
<path d="M0 0H190V60H0V0Z" fill="#132B81"/>
<path d="M8.816 37.2H18.392V31.776H11.192V20.304H27.44V31.776H20.264V37.2H29.84V38.784H8.816V37.2ZM13.016 21.888V30.192H25.616V21.888H13.016Z" fill="white"/>
<path d="M50.7761 31.416H48.9521V19.392H50.7761V31.416ZM34.8881 32.616H50.7281V40.656H34.8881V32.616ZM36.7121 34.152V39.072H48.9041V34.152H36.7121ZM38.3681 19.32C41.8961 19.32 44.6081 21.672 44.6081 25.032C44.6081 28.392 41.8961 30.744 38.3681 30.744C34.8401 30.744 32.1281 28.392 32.1281 25.032C32.1281 21.672 34.8401 19.32 38.3681 19.32ZM38.3681 29.16C41.0561 29.16 42.7841 27.432 42.7841 25.032C42.7841 22.632 41.0561 20.904 38.3681 20.904C35.6801 20.904 33.9521 22.632 33.9521 25.032C33.9521 27.432 35.6801 29.16 38.3681 29.16Z" fill="white"/>
<path d="M77.1631 35.592L75.9151 36.984C73.8511 35.496 71.7151 33.168 70.1551 30.768C69.8431 30.312 69.5791 29.88 69.3391 29.424C69.1711 29.832 68.9791 30.216 68.7871 30.624C67.3711 33.504 65.3071 35.832 62.8831 37.632L61.6591 36.36C66.3391 33.168 69.0751 27.672 69.1471 20.064H71.0191C71.0191 22.152 70.8271 24.072 70.4431 25.824C70.3231 26.352 70.1791 26.88 70.0351 27.384C70.7551 28.92 71.7151 30.384 72.8911 31.8C74.1391 33.288 75.5551 34.56 77.1631 35.592ZM81.7231 40.8H79.8991V19.392H81.7231V40.8Z" fill="white"/>
<path d="M103.211 35.184H101.387V19.392H103.211V25.392H106.163V27.024H103.211V35.184ZM103.907 40.56H87.6832V33.504H89.5072V38.976H103.907V40.56ZM85.9312 21.72V20.136H96.9712C97.0432 26.688 91.5712 31.008 85.7152 32.352L84.8032 30.912C90.5872 29.688 94.4512 25.848 94.9552 21.72H85.9312Z" fill="white"/>
<path d="M127.894 31.104C131.902 31.104 134.71 33.24 134.71 36.168C134.71 39.096 131.902 41.232 127.894 41.232C123.838 41.232 121.078 39.096 121.078 36.168C121.078 33.24 123.838 31.104 127.894 31.104ZM127.894 39.648C131.062 39.648 132.886 38.184 132.886 36.168C132.886 34.152 131.062 32.688 127.894 32.688C124.726 32.688 122.902 34.152 122.902 36.168C122.902 38.184 124.726 39.648 127.894 39.648ZM129.67 20.136V21.672H124.366C124.246 22.44 124.006 23.184 123.694 23.904L123.502 24.264C123.838 24.672 124.246 25.08 124.702 25.464C126.262 26.784 128.374 27.888 130.486 28.464L129.526 29.976C127.654 29.352 125.542 28.2 123.814 26.712C123.406 26.376 123.046 26.016 122.734 25.656C122.422 26.112 122.11 26.52 121.75 26.928C120.142 28.752 118.03 30.192 115.942 30.984L114.886 29.616C118.126 28.464 120.694 26.208 121.894 23.376C122.11 22.824 122.278 22.272 122.398 21.672H116.254V20.136H129.67ZM128.278 25.344V23.808H132.934V19.392H134.758V31.32H132.934V25.344H128.278Z" fill="white"/>
<path d="M148.734 21.168H141.534V19.584H148.734V21.168ZM151.854 24.792H138.318V23.208H151.854V24.792ZM145.086 26.328C148.806 26.328 151.062 28.992 151.062 32.136C151.062 35.28 148.806 37.944 145.086 37.944C141.366 37.944 139.11 35.28 139.11 32.136C139.11 28.992 141.366 26.328 145.086 26.328ZM145.086 36.384C147.894 36.384 149.238 34.392 149.238 32.16C149.238 29.856 147.894 27.888 145.086 27.888C142.278 27.888 140.934 29.856 140.934 32.16C140.934 34.392 142.278 36.384 145.086 36.384ZM156.15 40.8H154.326V19.392H156.15V28.512H159.63V30.144H156.15V40.8Z" fill="white"/>
<path d="M179.774 40.8H177.95V19.392H179.774V40.8ZM162.182 21.888V20.304H173.366C173.438 28.176 168.926 34.272 162.71 37.536L161.51 36.192C167.462 33.312 171.134 27.6 171.398 21.888H162.182Z" fill="white"/>
</svg>
