<svg width="52" height="31" viewBox="0 0 52 31" fill="none" xmlns="http://www.w3.org/2000/svg">
<g clip-path="url(#clip0_308_386)">
<path d="M0 0H52V31H0V0Z" fill="#132B81"/>
<path d="M22.0268 16.5127L12.7056 16.6504V15.7687L16.7246 15.7273V14.7491C16.4708 14.7216 16.2311 14.6802 15.9913 14.6113C14.8491 14.2807 14.0594 13.5229 14.0594 12.4758C14.0594 11.7593 14.5388 11.1256 15.1593 10.8913H13.1569V10.0371H21.3923V10.8913H19.3898C20.0103 11.1256 20.4898 11.7593 20.4898 12.4758C20.4898 13.5091 19.7142 14.2807 18.5437 14.6113C18.3181 14.6802 18.0784 14.7216 17.8245 14.7491V15.7136L22.0268 15.6584V16.5127ZM23.7473 20.894H22.6755V18.5242H14.0312V17.67H23.7473V20.894ZM23.7755 17.1189H22.7037V8.54911H23.7755V12.4069H25.4395V13.3438H23.7755V17.1189ZM17.2746 13.9224C18.6706 13.9224 19.4462 13.3024 19.4462 12.4758C19.4462 11.6491 18.6847 10.8913 17.2746 10.8913C15.8644 10.8913 15.1029 11.6491 15.1029 12.4758C15.1029 13.3024 15.8785 13.9224 17.2746 13.9224ZM15.0042 8.38378H19.545V9.238H15.0042V8.38378Z" fill="white"/>
<path d="M37.4729 17.6149H36.4012V8.54911H37.4729V17.6149ZM37.8255 20.7011H28.1517V16.6504H29.2234V19.7918H37.8255V20.7011ZM30.1824 8.50778C32.2553 8.50778 33.8488 9.94067 33.8488 11.9247C33.8488 13.9087 32.2553 15.3416 30.1824 15.3416C28.1094 15.3416 26.5159 13.9087 26.5159 11.9247C26.5159 9.94067 28.1094 8.50778 30.1824 8.50778ZM30.1824 14.4322C31.7618 14.4322 32.7771 13.3989 32.7771 11.9247C32.7771 10.4504 31.7618 9.41711 30.1824 9.41711C28.603 9.41711 27.5877 10.4504 27.5877 11.9247C27.5877 13.3989 28.603 14.4322 30.1824 14.4322Z" fill="white"/>
</g>
<defs>
<clipPath id="clip0_308_386">
<rect width="52" height="31" fill="white"/>
</clipPath>
</defs>
</svg>
