<svg width="59" height="36" viewBox="0 0 59 36" fill="none" xmlns="http://www.w3.org/2000/svg">
<path d="M0 0H59V36H0V0Z" fill="#132B81"/>
<path d="M24.992 19.176L14.416 19.336V18.312L18.976 18.264V17.128C18.688 17.096 18.416 17.048 18.144 16.968C16.848 16.584 15.952 15.704 15.952 14.488C15.952 13.656 16.496 12.92 17.2 12.648H14.928V11.656H24.272V12.648H22C22.704 12.92 23.248 13.656 23.248 14.488C23.248 15.688 22.368 16.584 21.04 16.968C20.784 17.048 20.512 17.096 20.224 17.128V18.248L24.992 18.184V19.176ZM26.944 24.264H25.728V21.512H15.92V20.52H26.944V24.264ZM26.976 19.88H25.76V9.928H26.976V14.408H28.864V15.496H26.976V19.88ZM19.6 16.168C21.184 16.168 22.064 15.448 22.064 14.488C22.064 13.528 21.2 12.648 19.6 12.648C18 12.648 17.136 13.528 17.136 14.488C17.136 15.448 18.016 16.168 19.6 16.168ZM17.024 9.736H22.176V10.728H17.024V9.736Z" fill="white"/>
<path d="M42.5174 20.456H41.3014V9.928H42.5174V20.456ZM42.9174 24.04H31.9414V19.336H33.1574V22.984H42.9174V24.04ZM34.2454 9.88C36.5974 9.88 38.4054 11.544 38.4054 13.848C38.4054 16.152 36.5974 17.816 34.2454 17.816C31.8934 17.816 30.0854 16.152 30.0854 13.848C30.0854 11.544 31.8934 9.88 34.2454 9.88ZM34.2454 16.76C36.0374 16.76 37.1894 15.56 37.1894 13.848C37.1894 12.136 36.0374 10.936 34.2454 10.936C32.4534 10.936 31.3014 12.136 31.3014 13.848C31.3014 15.56 32.4534 16.76 34.2454 16.76Z" fill="white"/>
</svg>
