<svg width="40" height="26" viewBox="0 0 40 26" fill="none" xmlns="http://www.w3.org/2000/svg">
<path d="M0 0H40V26H0V0Z" fill="#132B81"/>
<path d="M16.9437 13.8493L9.77356 13.9649V13.2253L12.8651 13.1907V12.3702C12.6698 12.3471 12.4854 12.3124 12.301 12.2547C11.4224 11.9773 10.8149 11.3418 10.8149 10.4636C10.8149 9.86267 11.1837 9.33111 11.661 9.13467H10.1207V8.41822H16.4556V9.13467H14.9153C15.3925 9.33111 15.7614 9.86267 15.7614 10.4636C15.7614 11.3302 15.1647 11.9773 14.2644 12.2547C14.0908 12.3124 13.9064 12.3471 13.7112 12.3702V13.1791L16.9437 13.1329V13.8493ZM18.2671 17.524H17.4427V15.5364H10.7932V14.82H18.2671V17.524ZM18.2888 14.3578H17.4644V7.17022H18.2888V10.4058H19.5688V11.1916H18.2888V14.3578ZM13.2881 11.6769C14.362 11.6769 14.9586 11.1569 14.9586 10.4636C14.9586 9.77022 14.3729 9.13467 13.2881 9.13467C12.2034 9.13467 11.6176 9.77022 11.6176 10.4636C11.6176 11.1569 12.2142 11.6769 13.2881 11.6769ZM11.5417 7.03155H15.0346V7.748H11.5417V7.03155Z" fill="white"/>
<path d="M28.8253 14.7738H28.0009V7.17022H28.8253V14.7738ZM29.0965 17.3622H21.6552V13.9649H22.4796V16.5996H29.0965V17.3622ZM23.2172 7.13555C24.8118 7.13555 26.0375 8.33733 26.0375 10.0013C26.0375 11.6653 24.8118 12.8671 23.2172 12.8671C21.6226 12.8671 20.3969 11.6653 20.3969 10.0013C20.3969 8.33733 21.6226 7.13555 23.2172 7.13555ZM23.2172 12.1044C24.4321 12.1044 25.2131 11.2378 25.2131 10.0013C25.2131 8.76489 24.4321 7.89822 23.2172 7.89822C22.0023 7.89822 21.2213 8.76489 21.2213 10.0013C21.2213 11.2378 22.0023 12.1044 23.2172 12.1044Z" fill="white"/>
</svg>
