<svg width="91" height="54" viewBox="0 0 91 54" fill="none" xmlns="http://www.w3.org/2000/svg">
<path d="M0 0H91V54H0V0Z" fill="#132B81"/>
<path d="M38.547 28.764L22.2348 29.004V27.468L29.2681 27.396V25.692C28.8239 25.644 28.4043 25.572 27.9848 25.452C25.9859 24.876 24.6039 23.556 24.6039 21.732C24.6039 20.484 25.443 19.38 26.5288 18.972H23.0245V17.484H37.4365V18.972H33.9322C35.018 19.38 35.8571 20.484 35.8571 21.732C35.8571 23.532 34.4998 24.876 32.4515 25.452C32.0567 25.572 31.6372 25.644 31.1929 25.692V27.372L38.547 27.276V28.764ZM41.5577 36.396H39.6822V32.268H24.5546V30.78H41.5577V36.396ZM41.6071 29.82H39.7315V14.892H41.6071V21.612H44.5191V23.244H41.6071V29.82ZM30.2305 24.252C32.6736 24.252 34.0309 23.172 34.0309 21.732C34.0309 20.292 32.6983 18.972 30.2305 18.972C27.7627 18.972 26.4301 20.292 26.4301 21.732C26.4301 23.172 27.7874 24.252 30.2305 24.252ZM26.2574 14.604H34.2037V16.092H26.2574V14.604Z" fill="white"/>
<path d="M65.5776 30.684H63.7021V14.892H65.5776V30.684ZM66.1946 36.06H49.2655V29.004H51.141V34.476H66.1946V36.06ZM52.8191 14.82C56.4468 14.82 59.2354 17.316 59.2354 20.772C59.2354 24.228 56.4468 26.724 52.8191 26.724C49.1915 26.724 46.4029 24.228 46.4029 20.772C46.4029 17.316 49.1915 14.82 52.8191 14.82ZM52.8191 25.14C55.5831 25.14 57.3599 23.34 57.3599 20.772C57.3599 18.204 55.5831 16.404 52.8191 16.404C50.0552 16.404 48.2784 18.204 48.2784 20.772C48.2784 23.34 50.0552 25.14 52.8191 25.14Z" fill="white"/>
</svg>
